{
    "asset" : {
        "generator" : "Khronos glTF Blender I/O v3.2.40",
        "version" : "2.0"
    },
    "scene" : 0,
    "scenes" : [
        {
            "name" : "Scene",
            "nodes" : [
                3
            ]
        }
    ],
    "nodes" : [
        {
            "mesh" : 0,
            "name" : "Glass",
            "scale" : [
                0.42281705141067505,
                1.1183816194534302,
                0.42281705141067505
            ],
            "translation" : [
                0,
                0.8122909069061279,
                0
            ]
        },
        {
            "mesh" : 1,
            "name" : "Lights"
        },
        {
            "mesh" : 2,
            "name" : "Wireframe"
        },
        {
            "children" : [
                0,
                1,
                2
            ],
            "mesh" : 3,
            "name" : "Body",
            "scale" : [
                3.1058928966522217,
                0.9027047157287598,
                3.1058928966522217
            ]
        }
    ],
    "materials" : [
        {
            "doubleSided" : true,
            "name" : "Glass",
            "pbrMetallicRoughness" : {
                "baseColorFactor" : [
                    0.0701630488038063,
                    0.5297475457191467,
                    0.8000000715255737,
                    1
                ],
                "metallicFactor" : 0.5669291615486145,
                "roughnessFactor" : 0.5
            }
        },
        {
            "doubleSided" : true,
            "emissiveFactor" : [
                1,
                1,
                1
            ],
            "name" : "Material.001",
            "pbrMetallicRoughness" : {
                "baseColorFactor" : [
                    0.800000011920929,
                    0.800000011920929,
                    0.800000011920929,
                    1
                ],
                "metallicFactor" : 0,
                "roughnessFactor" : 0.5
            }
        },
        {
            "doubleSided" : true,
            "name" : "Wireframe",
            "pbrMetallicRoughness" : {
                "baseColorFactor" : [
                    0.006370175629854202,
                    0.006370175629854202,
                    0.006370175629854202,
                    1
                ],
                "metallicFactor" : 0,
                "roughnessFactor" : 0.5
            }
        },
        {
            "doubleSided" : true,
            "name" : "Body",
            "pbrMetallicRoughness" : {
                "baseColorFactor" : [
                    0,
                    0,
                    0,
                    1
                ],
                "metallicFactor" : 0
            }
        }
    ],
    "meshes" : [
        {
            "name" : "Sphere.001",
            "primitives" : [
                {
                    "attributes" : {
                        "POSITION" : 0,
                        "NORMAL" : 1,
                        "TEXCOORD_0" : 2
                    },
                    "indices" : 3,
                    "material" : 0
                }
            ]
        },
        {
            "name" : "Sphere.002",
            "primitives" : [
                {
                    "attributes" : {
                        "POSITION" : 4,
                        "NORMAL" : 5,
                        "TEXCOORD_0" : 6
                    },
                    "indices" : 7,
                    "material" : 1
                }
            ]
        },
        {
            "name" : "Sphere.003",
            "primitives" : [
                {
                    "attributes" : {
                        "POSITION" : 8,
                        "NORMAL" : 9,
                        "TEXCOORD_0" : 10
                    },
                    "indices" : 11,
                    "material" : 2
                }
            ]
        },
        {
            "name" : "Sphere",
            "primitives" : [
                {
                    "attributes" : {
                        "POSITION" : 12,
                        "NORMAL" : 13,
                        "TEXCOORD_0" : 14
                    },
                    "indices" : 15,
                    "material" : 3
                }
            ]
        }
    ],
    "accessors" : [
        {
            "bufferView" : 0,
            "componentType" : 5126,
            "count" : 559,
            "max" : [
                0.9999997019767761,
                1,
                0.9999994039535522
            ],
            "min" : [
                -0.9999990463256836,
                -1,
                -0.9999987483024597
            ],
            "type" : "VEC3"
        },
        {
            "bufferView" : 1,
            "componentType" : 5126,
            "count" : 559,
            "type" : "VEC3"
        },
        {
            "bufferView" : 2,
            "componentType" : 5126,
            "count" : 559,
            "type" : "VEC2"
        },
        {
            "bufferView" : 3,
            "componentType" : 5123,
            "count" : 2880,
            "type" : "SCALAR"
        },
        {
            "bufferView" : 4,
            "componentType" : 5126,
            "count" : 44,
            "max" : [
                0.9238793849945068,
                0.5555702447891235,
                0.9238793253898621
            ],
            "min" : [
                -0.9238792061805725,
                0.3826834261417389,
                -0.906127393245697
            ],
            "type" : "VEC3"
        },
        {
            "bufferView" : 5,
            "componentType" : 5126,
            "count" : 44,
            "type" : "VEC3"
        },
        {
            "bufferView" : 6,
            "componentType" : 5126,
            "count" : 44,
            "type" : "VEC2"
        },
        {
            "bufferView" : 7,
            "componentType" : 5123,
            "count" : 66,
            "type" : "SCALAR"
        },
        {
            "bufferView" : 8,
            "componentType" : 5126,
            "count" : 15520,
            "max" : [
                1.0099997520446777,
                1.0099999904632568,
                1.009999394416809
            ],
            "min" : [
                -1.0099990367889404,
                -1.0099999904632568,
                -1.0099987983703613
            ],
            "type" : "VEC3"
        },
        {
            "bufferView" : 9,
            "componentType" : 5126,
            "count" : 15520,
            "type" : "VEC3"
        },
        {
            "bufferView" : 10,
            "componentType" : 5126,
            "count" : 15520,
            "type" : "VEC2"
        },
        {
            "bufferView" : 11,
            "componentType" : 5123,
            "count" : 23280,
            "type" : "SCALAR"
        },
        {
            "bufferView" : 12,
            "componentType" : 5126,
            "count" : 1940,
            "max" : [
                0.9999997019767761,
                1,
                0.9999994039535522
            ],
            "min" : [
                -0.9999990463256836,
                -1,
                -0.9999987483024597
            ],
            "type" : "VEC3"
        },
        {
            "bufferView" : 13,
            "componentType" : 5126,
            "count" : 1940,
            "type" : "VEC3"
        },
        {
            "bufferView" : 14,
            "componentType" : 5126,
            "count" : 1940,
            "type" : "VEC2"
        },
        {
            "bufferView" : 15,
            "componentType" : 5123,
            "count" : 2814,
            "type" : "SCALAR"
        }
    ],
    "bufferViews" : [
        {
            "buffer" : 0,
            "byteLength" : 6708,
            "byteOffset" : 0
        },
        {
            "buffer" : 0,
            "byteLength" : 6708,
            "byteOffset" : 6708
        },
        {
            "buffer" : 0,
            "byteLength" : 4472,
            "byteOffset" : 13416
        },
        {
            "buffer" : 0,
            "byteLength" : 5760,
            "byteOffset" : 17888
        },
        {
            "buffer" : 0,
            "byteLength" : 528,
            "byteOffset" : 23648
        },
        {
            "buffer" : 0,
            "byteLength" : 528,
            "byteOffset" : 24176
        },
        {
            "buffer" : 0,
            "byteLength" : 352,
            "byteOffset" : 24704
        },
        {
            "buffer" : 0,
            "byteLength" : 132,
            "byteOffset" : 25056
        },
        {
            "buffer" : 0,
            "byteLength" : 186240,
            "byteOffset" : 25188
        },
        {
            "buffer" : 0,
            "byteLength" : 186240,
            "byteOffset" : 211428
        },
        {
            "buffer" : 0,
            "byteLength" : 124160,
            "byteOffset" : 397668
        },
        {
            "buffer" : 0,
            "byteLength" : 46560,
            "byteOffset" : 521828
        },
        {
            "buffer" : 0,
            "byteLength" : 23280,
            "byteOffset" : 568388
        },
        {
            "buffer" : 0,
            "byteLength" : 23280,
            "byteOffset" : 591668
        },
        {
            "buffer" : 0,
            "byteLength" : 15520,
            "byteOffset" : 614948
        },
        {
            "buffer" : 0,
            "byteLength" : 5628,
            "byteOffset" : 630468
        }
    ],
    "buffers" : [
        {
            "byteLength" : 636096,
            "uri" : "untitled.bin"
        }
    ]
}
