{
    "asset" : {
        "generator" : "Khronos glTF Blender I/O v3.2.40",
        "version" : "2.0"
    },
    "scene" : 0,
    "scenes" : [
        {
            "name" : "Scene",
            "nodes" : [
                0
            ]
        }
    ],
    "nodes" : [
        {
            "mesh" : 0,
            "name" : "Text",
            "rotation" : [
                0.7071067094802856,
                0,
                0,
                0.7071068286895752
            ]
        }
    ],
    "materials" : [
        {
            "doubleSided" : true,
            "name" : "Material.001",
            "pbrMetallicRoughness" : {
                "metallicFactor" : 0,
                "roughnessFactor" : 0.5
            }
        }
    ],
    "meshes" : [
        {
            "name" : "Text",
            "primitives" : [
                {
                    "attributes" : {
                        "POSITION" : 0,
                        "NORMAL" : 1,
                        "TEXCOORD_0" : 2
                    },
                    "indices" : 3,
                    "material" : 0
                }
            ]
        }
    ],
    "accessors" : [
        {
            "bufferView" : 0,
            "componentType" : 5126,
            "count" : 12240,
            "max" : [
                3.2651829719543457,
                0.1600000113248825,
                0.32638806104660034
            ],
            "min" : [
                -3.267434597015381,
                -0.1600000113248825,
                -0.32638785243034363
            ],
            "type" : "VEC3"
        },
        {
            "bufferView" : 1,
            "componentType" : 5126,
            "count" : 12240,
            "type" : "VEC3"
        },
        {
            "bufferView" : 2,
            "componentType" : 5126,
            "count" : 12240,
            "type" : "VEC2"
        },
        {
            "bufferView" : 3,
            "componentType" : 5123,
            "count" : 52860,
            "type" : "SCALAR"
        }
    ],
    "bufferViews" : [
        {
            "buffer" : 0,
            "byteLength" : 146880,
            "byteOffset" : 0
        },
        {
            "buffer" : 0,
            "byteLength" : 146880,
            "byteOffset" : 146880
        },
        {
            "buffer" : 0,
            "byteLength" : 97920,
            "byteOffset" : 293760
        },
        {
            "buffer" : 0,
            "byteLength" : 105720,
            "byteOffset" : 391680
        }
    ],
    "buffers" : [
        {
            "byteLength" : 497400,
            "uri" : "name.bin"
        }
    ]
}
